<svg width="112" height="112" viewBox="0 0 112 112" fill="none" xmlns="http://www.w3.org/2000/svg">
<path d="M95.5267 34.3933C95.5267 34.3933 95.5267 34.3933 95.5267 34.02L95.2467 33.32C95.1492 33.1715 95.04 33.031 94.92 32.9C94.7952 32.7024 94.6547 32.5152 94.5 32.34L94.08 32.0133L93.3334 31.64L58.3334 10.0333C57.5917 9.56977 56.7347 9.32397 55.86 9.32397C54.9854 9.32397 54.1284 9.56977 53.3867 10.0333L18.6667 31.64L18.2467 32.0133L17.8267 32.34C17.672 32.5152 17.5316 32.7024 17.4067 32.9C17.2867 33.031 17.1775 33.1715 17.08 33.32L16.8 34.02C16.8 34.02 16.8 34.02 16.8 34.3933C16.7542 34.7965 16.7542 35.2035 16.8 35.6067V76.3933C16.7984 77.1864 16.999 77.9668 17.3828 78.6608C17.7665 79.3549 18.3208 79.9397 18.9934 80.36L53.9934 101.967C54.2088 102.1 54.4456 102.194 54.6934 102.247C54.6934 102.247 54.9267 102.247 55.0667 102.247C55.8562 102.497 56.7038 102.497 57.4934 102.247C57.4934 102.247 57.7267 102.247 57.8667 102.247C58.1144 102.194 58.3513 102.1 58.5667 101.967V101.967L93.3334 80.36C94.0059 79.9397 94.5602 79.3549 94.944 78.6608C95.3277 77.9668 95.5283 77.1864 95.5267 76.3933V35.6067C95.5726 35.2035 95.5726 34.7965 95.5267 34.3933V34.3933ZM51.3334 89.6466L25.6667 73.78V44.0067L51.3334 59.8267V89.6466ZM56 51.7533L29.8667 35.6067L56 19.5067L82.1334 35.6067L56 51.7533ZM86.3334 73.78L60.6667 89.6466V59.8267L86.3334 44.0067V73.78Z" fill="#EAEAEA"/>
</svg>
