<svg width="287" height="78" viewBox="0 0 287 78" fill="none" xmlns="http://www.w3.org/2000/svg">
<path d="M102.8 58.35C100.233 58.35 97.9333 57.9333 95.9 57.1C93.8667 56.2667 92.2333 55.0333 91 53.4C89.8 51.7667 89.1667 49.8 89.1 47.5H98.2C98.3333 48.8 98.7833 49.8 99.55 50.5C100.317 51.1667 101.317 51.5 102.55 51.5C103.817 51.5 104.817 51.2167 105.55 50.65C106.283 50.05 106.65 49.2333 106.65 48.2C106.65 47.3333 106.35 46.6167 105.75 46.05C105.183 45.4833 104.467 45.0167 103.6 44.65C102.767 44.2833 101.567 43.8667 100 43.4C97.7333 42.7 95.8833 42 94.45 41.3C93.0167 40.6 91.7833 39.5667 90.75 38.2C89.7167 36.8333 89.2 35.05 89.2 32.85C89.2 29.5833 90.3833 27.0333 92.75 25.2C95.1167 23.3333 98.2 22.4 102 22.4C105.867 22.4 108.983 23.3333 111.35 25.2C113.717 27.0333 114.983 29.6 115.15 32.9H105.9C105.833 31.7667 105.417 30.8833 104.65 30.25C103.883 29.5833 102.9 29.25 101.7 29.25C100.667 29.25 99.8333 29.5333 99.2 30.1C98.5667 30.6333 98.25 31.4167 98.25 32.45C98.25 33.5833 98.7833 34.4667 99.85 35.1C100.917 35.7333 102.583 36.4167 104.85 37.15C107.117 37.9167 108.95 38.65 110.35 39.35C111.783 40.05 113.017 41.0667 114.05 42.4C115.083 43.7333 115.6 45.45 115.6 47.55C115.6 49.55 115.083 51.3667 114.05 53C113.05 54.6333 111.583 55.9333 109.65 56.9C107.717 57.8667 105.433 58.35 102.8 58.35ZM136.412 50.75V58H132.062C128.962 58 126.545 57.25 124.812 55.75C123.078 54.2167 122.212 51.7333 122.212 48.3V37.2H118.812V30.1H122.212V23.3H130.762V30.1H136.362V37.2H130.762V48.4C130.762 49.2333 130.962 49.8333 131.362 50.2C131.762 50.5667 132.428 50.75 133.362 50.75H136.412ZM168.724 30.1V58H160.174V54.2C159.308 55.4333 158.124 56.4333 156.624 57.2C155.158 57.9333 153.524 58.3 151.724 58.3C149.591 58.3 147.708 57.8333 146.074 56.9C144.441 55.9333 143.174 54.55 142.274 52.75C141.374 50.95 140.924 48.8333 140.924 46.4V30.1H149.424V45.25C149.424 47.1167 149.908 48.5667 150.874 49.6C151.841 50.6333 153.141 51.15 154.774 51.15C156.441 51.15 157.758 50.6333 158.724 49.6C159.691 48.5667 160.174 47.1167 160.174 45.25V30.1H168.724ZM173.166 44C173.166 41.1333 173.699 38.6167 174.766 36.45C175.866 34.2833 177.349 32.6167 179.216 31.45C181.082 30.2833 183.166 29.7 185.466 29.7C187.299 29.7 188.966 30.0833 190.466 30.85C191.999 31.6167 193.199 32.65 194.066 33.95V21H202.616V58H194.066V54C193.266 55.3333 192.116 56.4 190.616 57.2C189.149 58 187.432 58.4 185.466 58.4C183.166 58.4 181.082 57.8167 179.216 56.65C177.349 55.45 175.866 53.7667 174.766 51.6C173.699 49.4 173.166 46.8667 173.166 44ZM194.066 44.05C194.066 41.9167 193.466 40.2333 192.266 39C191.099 37.7667 189.666 37.15 187.966 37.15C186.266 37.15 184.816 37.7667 183.616 39C182.449 40.2 181.866 41.8667 181.866 44C181.866 46.1333 182.449 47.8333 183.616 49.1C184.816 50.3333 186.266 50.95 187.966 50.95C189.666 50.95 191.099 50.3333 192.266 49.1C193.466 47.8667 194.066 46.1833 194.066 44.05ZM235.101 43.6C235.101 44.4 235.051 45.2333 234.951 46.1H215.601C215.735 47.8333 216.285 49.1667 217.251 50.1C218.251 51 219.468 51.45 220.901 51.45C223.035 51.45 224.518 50.55 225.351 48.75H234.451C233.985 50.5833 233.135 52.2333 231.901 53.7C230.701 55.1667 229.185 56.3167 227.351 57.15C225.518 57.9833 223.468 58.4 221.201 58.4C218.468 58.4 216.035 57.8167 213.901 56.65C211.768 55.4833 210.101 53.8167 208.901 51.65C207.701 49.4833 207.101 46.95 207.101 44.05C207.101 41.15 207.685 38.6167 208.851 36.45C210.051 34.2833 211.718 32.6167 213.851 31.45C215.985 30.2833 218.435 29.7 221.201 29.7C223.901 29.7 226.301 30.2667 228.401 31.4C230.501 32.5333 232.135 34.15 233.301 36.25C234.501 38.35 235.101 40.8 235.101 43.6ZM226.351 41.35C226.351 39.8833 225.851 38.7167 224.851 37.85C223.851 36.9833 222.601 36.55 221.101 36.55C219.668 36.55 218.451 36.9667 217.451 37.8C216.485 38.6333 215.885 39.8167 215.651 41.35H226.351ZM253.612 37.2H249.012V58H240.462V37.2H237.362V30.1H240.462V29.3C240.462 25.8667 241.445 23.2667 243.412 21.5C245.378 19.7 248.262 18.8 252.062 18.8C252.695 18.8 253.162 18.8167 253.462 18.85V26.1C251.828 26 250.678 26.2333 250.012 26.8C249.345 27.3667 249.012 28.3833 249.012 29.85V30.1H253.612V37.2ZM286.129 30.1L268.629 71.25H259.429L265.829 57.05L254.479 30.1H264.029L270.479 47.55L276.879 30.1H286.129Z" fill="black"/>
<path d="M66.5277 23.9524C66.5277 23.9524 66.5277 23.9524 66.5277 23.6924L66.3327 23.2049C66.2649 23.1015 66.1888 23.0037 66.1052 22.9124C66.0183 22.7748 65.9205 22.6444 65.8127 22.5224L65.5202 22.2949L65.0002 22.0349L40.6252 6.98742C40.1087 6.66458 39.5118 6.49341 38.9027 6.49341C38.2936 6.49341 37.6968 6.66458 37.1802 6.98742L13.0002 22.0349L12.7077 22.2949L12.4152 22.5224C12.3075 22.6444 12.2097 22.7748 12.1227 22.9124C12.0392 23.0037 11.9631 23.1015 11.8952 23.2049L11.7002 23.6924C11.7002 23.6924 11.7002 23.6924 11.7002 23.9524C11.6683 24.2332 11.6683 24.5167 11.7002 24.7974V53.2024C11.6991 53.7547 11.8388 54.2982 12.1061 54.7816C12.3733 55.2649 12.7594 55.6722 13.2277 55.9649L37.6027 71.0124C37.7528 71.1051 37.9177 71.171 38.0902 71.2074C38.0902 71.2074 38.2527 71.2074 38.3502 71.2074C38.9001 71.3818 39.4904 71.3818 40.0402 71.2074C40.0402 71.2074 40.2027 71.2074 40.3002 71.2074C40.4728 71.171 40.6377 71.1051 40.7877 71.0124V71.0124L65.0002 55.9649C65.4686 55.6722 65.8546 55.2649 66.1219 54.7816C66.3892 54.2982 66.5288 53.7547 66.5277 53.2024V24.7974C66.5597 24.5167 66.5597 24.2332 66.5277 23.9524V23.9524ZM35.7502 62.4324L17.8752 51.3824V30.6474L35.7502 41.6649V62.4324ZM39.0002 36.0424L20.8002 24.7974L39.0002 13.5849L57.2002 24.7974L39.0002 36.0424ZM60.1252 51.3824L42.2502 62.4324V41.6649L60.1252 30.6474V51.3824Z" fill="#4B5973"/>
</svg>
